<?xml version="1.0" encoding="iso-8859-1"?>
<!-- Generator: Adobe Illustrator 19.0.1, SVG Export Plug-In . SVG Version: 6.00 Build 0)  -->
<svg version="1.1" xmlns="http://www.w3.org/2000/svg" xmlns:xlink="http://www.w3.org/1999/xlink" x="0px" y="0px"
	 viewBox="0 0 128 128" style="enable-background:new 0 0 128 128;" xml:space="preserve">
<g id="_x38_">
	<path id="_x38__1_" style="fill:#000000;" d="M105.924,76.451c-3.678,0-7.137,0.926-10.176,2.556l-3.877-4.209
		c2.225-2.887,3.789-6.325,4.471-10.071c1.96,0.882,4.141,1.366,6.432,1.366c8.855,0,16.057-7.206,16.057-16.043
		c0-8.859-7.203-16.066-16.057-16.066c-6.189,0-11.564,3.504-14.229,8.661c-4.141-3.592-9.493-5.752-15.375-5.752
		c-3.15,0-6.145,0.617-8.877,1.741l-0.837-1.146c2.467-3.085,3.943-6.986,3.943-11.239c0-9.917-8.062-17.983-17.996-17.983
		c-9.912,0-17.974,8.066-17.974,17.983c0,9.939,8.062,18.005,17.974,18.005c2.489,0,4.868-0.507,7.049-1.433l0.462,0.617
		l-0.72,0.198c-4.339,4.253-7.592,10.248-7.592,16.837v0.419l-4.302,0.727c-4.317-6.7-11.59-11.129-20.136-11.129
		C10.773,50.491,0,61.399,0,74.798s10.968,24.308,24.36,24.308s24.328-10.909,24.328-24.308c0-1.631-0.127-3.239-0.435-4.782
		l3.163-0.485c3.546,8.529,11.967,14.523,21.747,14.523c4.449,0,8.616-1.234,12.162-3.394l3.658,4.011
		c-2.951,3.702-4.691,8.374-4.691,13.421c0,11.944,9.714,21.641,21.63,21.641c11.938,0,21.63-9.697,21.63-21.641
		C127.554,86.17,117.862,76.451,105.924,76.451z M102.774,42.8c3.987,0,7.247,3.24,7.247,7.251c0,3.989-3.26,7.228-7.247,7.228
		c-3.987,0-7.247-3.239-7.247-7.228C95.527,46.039,98.787,42.8,102.774,42.8z M24.426,90.291c-8.546,0-15.485-6.942-15.485-15.493
		s6.938-15.493,15.485-15.493S39.91,66.248,39.91,74.798S32.972,90.291,24.426,90.291z M49.404,35.439
		c-5.066,0-9.163-4.121-9.163-9.19c0-5.047,4.097-9.168,9.163-9.168s9.185,4.121,9.185,9.168
		C58.589,31.318,54.47,35.439,49.404,35.439z M73.17,75.239c-8.128,0-14.736-6.611-14.736-14.765
		c0-8.132,6.608-14.765,14.736-14.765c8.15,0,14.758,6.633,14.758,14.765C87.928,68.628,81.32,75.239,73.17,75.239z
		 M105.924,110.918c-7.07,0-12.819-5.752-12.819-12.826s5.749-12.826,12.819-12.826c7.071,0,12.819,5.752,12.819,12.826
		S112.994,110.918,105.924,110.918z"/>
</g>
<g id="Layer_1">
</g>
</svg>
